<?xml version="1.0" encoding="UTF-8" standalone="no"?>
<!DOCTYPE svg PUBLIC "-//W3C//DTD SVG 1.1//EN"
 "http://www.w3.org/Graphics/SVG/1.1/DTD/svg11.dtd">
<!-- Generated by graphviz version 2.47.0 (20210316.0004)
 -->
<!-- Title: dependencies Pages: 1 -->
<svg width="764pt" height="211pt"
 viewBox="0.00 0.00 764.00 211.00" xmlns="http://www.w3.org/2000/svg" xmlns:xlink="http://www.w3.org/1999/xlink">
<g id="graph0" class="graph" transform="scale(1 1) rotate(0) translate(4 207)">
<title>dependencies</title>
<polygon fill="white" stroke="transparent" points="-4,4 -4,-207 760,-207 760,4 -4,4"/>
<text text-anchor="start" x="357.01" y="-42.4" font-family="Times-12" font-weight="bold" font-size="14.00">Legend</text>
<polygon fill="#ffffb3" stroke="transparent" points="144,-10 144,-30 164,-30 164,-10 144,-10"/>
<text text-anchor="start" x="167.63" y="-15.4" font-family="Times-12" font-size="14.00"> &#160;Declarations</text>
<polygon fill="#8dd3c7" stroke="transparent" points="257,-10 257,-30 277,-30 277,-10 257,-10"/>
<text text-anchor="start" x="280.73" y="-15.4" font-family="Times-12" font-size="14.00"> &#160;Module</text>
<polygon fill="#80b1d3" stroke="transparent" points="343,-10 343,-30 363,-30 363,-10 343,-10"/>
<text text-anchor="start" x="366.78" y="-15.4" font-family="Times-12" font-size="14.00"> &#160;Bootstrap</text>
<polygon fill="#fdb462" stroke="transparent" points="440,-10 440,-30 460,-30 460,-10 440,-10"/>
<text text-anchor="start" x="463.67" y="-15.4" font-family="Times-12" font-size="14.00"> &#160;Providers</text>
<polygon fill="#fb8072" stroke="transparent" points="536,-10 536,-30 556,-30 556,-10 536,-10"/>
<text text-anchor="start" x="559.73" y="-15.4" font-family="Times-12" font-size="14.00"> &#160;Exports</text>
<g id="clust1" class="cluster">
<title>cluster_DashboardModule</title>
<polygon fill="none" stroke="black" stroke-dasharray="1,5" points="8,-70 8,-195 748,-195 748,-70 8,-70"/>
</g>
<g id="clust2" class="cluster">
<title>cluster_DashboardModule_declarations</title>
<polygon fill="none" stroke="black" points="16,-78 16,-130 740,-130 740,-78 16,-78"/>
</g>
<!-- BottomNavigationComponent -->
<g id="node1" class="node">
<title>BottomNavigationComponent</title>
<polygon fill="#ffffb3" stroke="black" points="731.55,-122 546.45,-122 546.45,-86 731.55,-86 731.55,-122"/>
<text text-anchor="middle" x="639" y="-99.8" font-family="Times,serif" font-size="14.00">BottomNavigationComponent</text>
</g>
<!-- DashboardModule -->
<g id="node5" class="node">
<title>DashboardModule</title>
<polygon fill="#8dd3c7" stroke="black" points="432.19,-187 429.19,-191 408.19,-191 405.19,-187 311.81,-187 311.81,-151 432.19,-151 432.19,-187"/>
<text text-anchor="middle" x="372" y="-164.8" font-family="Times,serif" font-size="14.00">DashboardModule</text>
</g>
<!-- BottomNavigationComponent&#45;&gt;DashboardModule -->
<g id="edge1" class="edge">
<title>BottomNavigationComponent&#45;&gt;DashboardModule</title>
<path fill="none" stroke="black" d="M639,-122.11C639,-141.34 639,-169 639,-169 639,-169 442.25,-169 442.25,-169"/>
<polygon fill="black" stroke="black" points="442.25,-165.5 432.25,-169 442.25,-172.5 442.25,-165.5"/>
</g>
<!-- DashboardComponent -->
<g id="node2" class="node">
<title>DashboardComponent</title>
<polygon fill="#ffffb3" stroke="black" points="527.97,-122 386.03,-122 386.03,-86 527.97,-86 527.97,-122"/>
<text text-anchor="middle" x="457" y="-99.8" font-family="Times,serif" font-size="14.00">DashboardComponent</text>
</g>
<!-- DashboardComponent&#45;&gt;DashboardModule -->
<g id="edge2" class="edge">
<title>DashboardComponent&#45;&gt;DashboardModule</title>
<path fill="none" stroke="black" d="M409.05,-122.11C409.05,-122.11 409.05,-140.99 409.05,-140.99"/>
<polygon fill="black" stroke="black" points="405.55,-140.99 409.05,-150.99 412.55,-140.99 405.55,-140.99"/>
</g>
<!-- ProfileHeaderComponent -->
<g id="node3" class="node">
<title>ProfileHeaderComponent</title>
<polygon fill="#ffffb3" stroke="black" points="367.84,-122 208.16,-122 208.16,-86 367.84,-86 367.84,-122"/>
<text text-anchor="middle" x="288" y="-99.8" font-family="Times,serif" font-size="14.00">ProfileHeaderComponent</text>
</g>
<!-- ProfileHeaderComponent&#45;&gt;DashboardModule -->
<g id="edge3" class="edge">
<title>ProfileHeaderComponent&#45;&gt;DashboardModule</title>
<path fill="none" stroke="black" d="M339.91,-122.11C339.91,-122.11 339.91,-140.99 339.91,-140.99"/>
<polygon fill="black" stroke="black" points="336.41,-140.99 339.91,-150.99 343.41,-140.99 336.41,-140.99"/>
</g>
<!-- ProfileSectionsComponent -->
<g id="node4" class="node">
<title>ProfileSectionsComponent</title>
<polygon fill="#ffffb3" stroke="black" points="190.37,-122 23.63,-122 23.63,-86 190.37,-86 190.37,-122"/>
<text text-anchor="middle" x="107" y="-99.8" font-family="Times,serif" font-size="14.00">ProfileSectionsComponent</text>
</g>
<!-- ProfileSectionsComponent&#45;&gt;DashboardModule -->
<g id="edge4" class="edge">
<title>ProfileSectionsComponent&#45;&gt;DashboardModule</title>
<path fill="none" stroke="black" d="M107,-122.11C107,-141.34 107,-169 107,-169 107,-169 301.87,-169 301.87,-169"/>
<polygon fill="black" stroke="black" points="301.87,-172.5 311.87,-169 301.87,-165.5 301.87,-172.5"/>
</g>
</g>
</svg>
