<?xml version="1.0" encoding="UTF-8" standalone="no"?>
<!DOCTYPE svg PUBLIC "-//W3C//DTD SVG 1.1//EN"
 "http://www.w3.org/Graphics/SVG/1.1/DTD/svg11.dtd">
<!-- Generated by graphviz version 2.47.0 (20210316.0004)
 -->
<!-- Title: dependencies Pages: 1 -->
<svg width="756pt" height="284pt"
 viewBox="0.00 0.00 756.00 284.00" xmlns="http://www.w3.org/2000/svg" xmlns:xlink="http://www.w3.org/1999/xlink">
<g id="graph0" class="graph" transform="scale(1 1) rotate(0) translate(4 280)">
<title>dependencies</title>
<polygon fill="white" stroke="transparent" points="-4,4 -4,-280 752,-280 752,4 -4,4"/>
<text text-anchor="start" x="353.01" y="-42.4" font-family="Times-12" font-weight="bold" font-size="14.00">Legend</text>
<polygon fill="#ffffb3" stroke="transparent" points="140,-10 140,-30 160,-30 160,-10 140,-10"/>
<text text-anchor="start" x="163.63" y="-15.4" font-family="Times-12" font-size="14.00"> &#160;Declarations</text>
<polygon fill="#8dd3c7" stroke="transparent" points="253,-10 253,-30 273,-30 273,-10 253,-10"/>
<text text-anchor="start" x="276.73" y="-15.4" font-family="Times-12" font-size="14.00"> &#160;Module</text>
<polygon fill="#80b1d3" stroke="transparent" points="339,-10 339,-30 359,-30 359,-10 339,-10"/>
<text text-anchor="start" x="362.78" y="-15.4" font-family="Times-12" font-size="14.00"> &#160;Bootstrap</text>
<polygon fill="#fdb462" stroke="transparent" points="436,-10 436,-30 456,-30 456,-10 436,-10"/>
<text text-anchor="start" x="459.67" y="-15.4" font-family="Times-12" font-size="14.00"> &#160;Providers</text>
<polygon fill="#fb8072" stroke="transparent" points="532,-10 532,-30 552,-30 552,-10 532,-10"/>
<text text-anchor="start" x="555.73" y="-15.4" font-family="Times-12" font-size="14.00"> &#160;Exports</text>
<g id="clust1" class="cluster">
<title>cluster_AppModule</title>
<polygon fill="none" stroke="black" stroke-dasharray="1,5" points="8,-70 8,-268 740,-268 740,-70 8,-70"/>
</g>
<g id="clust6" class="cluster">
<title>cluster_AppModule_bootstrap</title>
<polygon fill="none" stroke="black" points="350,-208 350,-260 474,-260 474,-208 350,-208"/>
</g>
<g id="clust4" class="cluster">
<title>cluster_AppModule_imports</title>
<polygon fill="none" stroke="black" points="146,-78 146,-130 732,-130 732,-78 146,-78"/>
</g>
<g id="clust2" class="cluster">
<title>cluster_AppModule_declarations</title>
<polygon fill="none" stroke="black" points="16,-78 16,-130 138,-130 138,-78 16,-78"/>
</g>
<!-- AppComponent -->
<g id="node1" class="node">
<title>AppComponent</title>
<polygon fill="#ffffb3" stroke="black" points="129.94,-122 24.06,-122 24.06,-86 129.94,-86 129.94,-122"/>
<text text-anchor="middle" x="77" y="-99.8" font-family="Times,serif" font-size="14.00">AppComponent</text>
</g>
<!-- AppModule -->
<g id="node2" class="node">
<title>AppModule</title>
<polygon fill="#8dd3c7" stroke="black" points="453.66,-187 450.66,-191 429.66,-191 426.66,-187 370.34,-187 370.34,-151 453.66,-151 453.66,-187"/>
<text text-anchor="middle" x="412" y="-164.8" font-family="Times,serif" font-size="14.00">AppModule</text>
</g>
<!-- AppComponent&#45;&gt;AppModule -->
<g id="edge1" class="edge">
<title>AppComponent&#45;&gt;AppModule</title>
<path fill="none" stroke="black" d="M77,-122.28C77,-143.32 77,-175 77,-175 77,-175 360.25,-175 360.25,-175"/>
<polygon fill="black" stroke="black" points="360.25,-178.5 370.25,-175 360.25,-171.5 360.25,-178.5"/>
</g>
<!-- AppComponent  -->
<g id="node7" class="node">
<title>AppComponent </title>
<polygon fill="#80b1d3" stroke="black" points="466.44,-252 357.56,-252 357.56,-216 466.44,-216 466.44,-252"/>
<text text-anchor="middle" x="412" y="-229.8" font-family="Times,serif" font-size="14.00">AppComponent </text>
</g>
<!-- AppModule&#45;&gt;AppComponent  -->
<g id="edge6" class="edge">
<title>AppModule&#45;&gt;AppComponent </title>
<path fill="none" stroke="black" stroke-dasharray="1,5" d="M412,-187.11C412,-187.11 412,-205.99 412,-205.99"/>
<polygon fill="black" stroke="black" points="408.5,-205.99 412,-215.99 415.5,-205.99 408.5,-205.99"/>
</g>
<!-- AppRoutingModule -->
<g id="node3" class="node">
<title>AppRoutingModule</title>
<polygon fill="#8dd3c7" stroke="black" points="724.27,-122 721.27,-126 700.27,-126 697.27,-122 595.73,-122 595.73,-86 724.27,-86 724.27,-122"/>
<text text-anchor="middle" x="660" y="-99.8" font-family="Times,serif" font-size="14.00">AppRoutingModule</text>
</g>
<!-- AppRoutingModule&#45;&gt;AppModule -->
<g id="edge2" class="edge">
<title>AppRoutingModule&#45;&gt;AppModule</title>
<path fill="none" stroke="black" d="M660,-122.28C660,-143.32 660,-175 660,-175 660,-175 463.79,-175 463.79,-175"/>
<polygon fill="black" stroke="black" points="463.79,-171.5 453.79,-175 463.79,-178.5 463.79,-171.5"/>
</g>
<!-- AuthModule -->
<g id="node4" class="node">
<title>AuthModule</title>
<polygon fill="#8dd3c7" stroke="black" points="577.55,-122 574.55,-126 553.55,-126 550.55,-122 490.45,-122 490.45,-86 577.55,-86 577.55,-122"/>
<text text-anchor="middle" x="534" y="-99.8" font-family="Times,serif" font-size="14.00">AuthModule</text>
</g>
<!-- AuthModule&#45;&gt;AppModule -->
<g id="edge3" class="edge">
<title>AuthModule&#45;&gt;AppModule</title>
<path fill="none" stroke="black" d="M534,-122.02C534,-139.37 534,-163 534,-163 534,-163 463.99,-163 463.99,-163"/>
<polygon fill="black" stroke="black" points="463.99,-159.5 453.99,-163 463.99,-166.5 463.99,-159.5"/>
</g>
<!-- DashboardModule -->
<g id="node5" class="node">
<title>DashboardModule</title>
<polygon fill="#8dd3c7" stroke="black" points="472.19,-122 469.19,-126 448.19,-126 445.19,-122 351.81,-122 351.81,-86 472.19,-86 472.19,-122"/>
<text text-anchor="middle" x="412" y="-99.8" font-family="Times,serif" font-size="14.00">DashboardModule</text>
</g>
<!-- DashboardModule&#45;&gt;AppModule -->
<g id="edge4" class="edge">
<title>DashboardModule&#45;&gt;AppModule</title>
<path fill="none" stroke="black" d="M412,-122.11C412,-122.11 412,-140.99 412,-140.99"/>
<polygon fill="black" stroke="black" points="408.5,-140.99 412,-150.99 415.5,-140.99 408.5,-140.99"/>
</g>
<!-- NavigationFooterComponent -->
<g id="node6" class="node">
<title>NavigationFooterComponent</title>
<polygon fill="#8dd3c7" stroke="black" points="334.09,-122 331.09,-126 310.09,-126 307.09,-122 153.91,-122 153.91,-86 334.09,-86 334.09,-122"/>
<text text-anchor="middle" x="244" y="-99.8" font-family="Times,serif" font-size="14.00">NavigationFooterComponent</text>
</g>
<!-- NavigationFooterComponent&#45;&gt;AppModule -->
<g id="edge5" class="edge">
<title>NavigationFooterComponent&#45;&gt;AppModule</title>
<path fill="none" stroke="black" d="M244,-122.02C244,-139.37 244,-163 244,-163 244,-163 360.04,-163 360.04,-163"/>
<polygon fill="black" stroke="black" points="360.04,-166.5 370.04,-163 360.04,-159.5 360.04,-166.5"/>
</g>
</g>
</svg>
